<?xml version="1.0" standalone="no"?>
<!DOCTYPE svg PUBLIC "-//W3C//DTD SVG 20010904//EN"
 "http://www.w3.org/TR/2001/REC-SVG-20010904/DTD/svg10.dtd">
<svg version="1.0" xmlns="http://www.w3.org/2000/svg"
 width="118.000000pt" height="115.000000pt" viewBox="0 0 118.000000 115.000000"
 preserveAspectRatio="xMidYMid meet">

<g transform="translate(0.000000,115.000000) scale(0.100000,-0.100000)"
fill="#000000" stroke="none">
<path d="M462 1100 c-98 -26 -174 -71 -247 -144 -208 -209 -205 -530 5 -738
214 -210 550 -210 761 1 328 328 111 875 -356 897 -69 3 -107 0 -163 -16z
m300 -158 c79 -39 149 -111 186 -190 21 -45 27 -77 30 -151 4 -87 3 -93 -14
-87 -11 3 -46 12 -79 19 -33 8 -75 22 -94 31 -47 25 -48 14 -1 -26 39 -34 40
-36 40 -99 -1 -36 -9 -88 -20 -119 -10 -30 -17 -56 -15 -58 2 -2 16 19 31 46
25 44 30 48 40 34 10 -14 9 -21 -9 -41 -26 -29 -106 -81 -123 -81 -10 0 -11
44 -7 199 l6 198 -27 7 c-16 4 -24 11 -20 18 5 8 -2 9 -22 4 -16 -4 -66 -10
-111 -13 l-83 -6 0 -203 c0 -161 -3 -204 -13 -204 -18 0 -98 52 -122 80 -18
20 -20 36 -20 169 l0 148 91 47 c49 26 113 65 141 86 l51 38 59 -27 c32 -16
85 -49 117 -75 68 -53 86 -58 57 -17 -43 60 -213 181 -255 181 -40 0 -181 -79
-247 -138 l-61 -55 4 -144 c1 -79 2 -143 0 -143 -2 0 -15 26 -30 58 -24 51
-27 69 -27 162 0 94 3 111 28 161 51 105 136 181 240 215 26 9 74 13 128 11
74 -3 96 -8 151 -35z m-61 -355 c-1 -4 -1 -90 -1 -192 0 -117 -4 -185 -10
-185 -6 0 -10 72 -10 196 0 135 3 195 11 192 6 -2 10 -7 10 -11z m269 -100 c0
-19 -60 -137 -69 -137 -20 0 -28 47 -18 98 11 52 11 52 49 52 25 0 38 -5 38
-13z m-300 -102 c0 -8 -4 -15 -10 -15 -5 0 -10 7 -10 15 0 8 5 15 10 15 6 0
10 -7 10 -15z"/>
<path d="M625 924 c-9 -9 -15 -28 -13 -43 2 -21 8 -26 32 -26 36 0 58 30 45
63 -10 26 -41 29 -64 6z"/>
<path d="M851 602 c-7 -14 -7 -24 3 -37 19 -27 48 -12 44 22 -4 33 -32 42 -47
15z"/>
</g>
</svg>
